<svg xmlns="http://www.w3.org/2000/svg" version="1.1" xmlns:xlink="http://www.w3.org/1999/xlink" width="100" height="100"><svg width="100" height="100" viewBox="0 0 100 100" fill="none" xmlns="http://www.w3.org/2000/svg">
<g clip-path="url(#clip0_3480_232)">
<path d="M16.896 99.7418C8.06506 101.592 0 93.2616 0 82.2901V17.7055C0 7.92706 6.47301 0 14.4578 0H85.5422C93.5271 0 100 7.92706 100 17.7055V67.3964C100 76.0231 94.9235 83.3937 87.9801 84.8486L16.896 99.7418Z" fill="#F14944"></path>
<path d="M40.9775 22L31.8483 23.7561L23 52L30.5843 50.5365L32.1293 44.9756L38.309 43.8048H38.4494L39.4327 43.6585L40.2754 47.4635L40.5562 48.6341L48 47.1707L40.9775 22ZM33.6741 39.122L36.3428 29.317H36.4832L38.4494 38.0976L33.6741 39.122Z" fill="white"></path>
<path d="M76.8592 55.9854L66.0137 57.9923L65.8729 63.1529L69.8167 62.4362C69.8167 63.4397 69.3941 64.4431 68.6898 65.1599C67.9857 66.02 67.1406 66.45 66.0137 66.7367C64.6052 67.0235 63.3376 66.7367 62.3516 66.02C61.3656 65.3033 60.8023 64.013 60.5205 62.2928C60.2388 60.5726 60.2388 58.9957 60.5205 57.5623C60.8023 56.1288 61.3657 54.8385 62.2108 53.8351C63.0559 52.8317 64.0418 52.2582 65.3094 51.9716C66.4363 51.8282 67.4222 51.8282 68.2673 52.4015C69.1124 52.8317 69.6759 53.5484 69.8167 54.4085L76.7183 53.1183C76.7183 52.975 76.7183 52.6883 76.7183 52.545C76.5775 51.3981 76.0141 50.3947 75.3098 49.5346C74.6056 48.6745 73.6196 47.8144 72.6337 47.2409C71.5069 46.6676 70.38 46.2375 68.8308 46.0941C67.4222 45.9508 65.8729 45.9508 64.3235 46.2375C62.3516 46.6675 60.5205 47.3842 58.9713 48.3878C57.4219 49.5346 56.1542 50.8247 55.1682 52.4015C54.1823 53.9784 53.478 55.6986 53.1964 57.7056C52.9146 59.7125 52.9146 61.8628 53.3372 64.013C53.9005 67.3101 55.4499 69.7471 57.8444 71.324C60.2388 72.9009 63.0559 73.3309 66.2954 72.7575C69.8167 72.0408 72.4928 70.6072 74.3239 68.1702C76.1549 65.7332 77 62.7229 77 58.8524L76.8592 55.9854Z" fill="white"></path>
<path d="M61.4172 79C56.69 79 52.1062 76.982 48.8115 73.3783C44.8006 69.054 43.2249 63 44.6574 57.3783L45.2564 55.1396C45.4449 54.4348 44.8397 53.7719 44.1207 53.8956L14.6176 58.9739C13.8795 59.1009 13.2688 58.4014 13.4944 57.6872L25.57 19.4582C25.6802 19.1092 25.9724 18.8482 26.3317 18.778L44.7887 15.1703C45.2858 15.0732 45.777 15.363 45.9323 15.8451L53.8342 40.3733C53.9917 40.8621 54.4938 41.1522 54.9959 41.0444L64.855 38.9279C70.8714 37.7748 76.8877 39.6486 81.185 44.1172C85.3392 48.5856 86.9149 54.7838 85.4825 60.6937L84.623 64.1531C82.7607 71.2162 77.0309 76.5495 70.0119 77.8469L64.4252 78.8559C63.4225 78.8559 62.4199 79 61.4172 79ZM49.4427 48.8559C50.1558 48.7289 50.7631 49.3785 50.5885 50.0815L48.5249 58.3874C47.379 62.8559 48.6683 67.4684 51.6764 70.7838C54.6846 74.0991 59.2684 75.6847 63.7091 74.8198L69.2956 73.8108C74.8823 72.8018 79.3229 68.6217 80.7553 63.1441L81.6148 59.9729C82.7607 55.3604 81.6148 50.6036 78.3202 47.1441C75.0255 43.6847 70.4417 42.0991 65.7145 43.1081L52.2691 45.9493C51.7691 46.055 51.2699 45.7667 51.1116 45.2808L43.0714 20.6046C42.914 20.1215 42.4194 19.8332 41.9214 19.9344L29.1907 22.5224C28.8347 22.5947 28.5459 22.8545 28.4364 23.2008L19.0849 52.7756C18.8583 53.4923 19.4737 54.1934 20.2137 54.0616L49.4427 48.8559Z" fill="white"></path>
</g>
<defs>
<clipPath id="SvgjsClipPath1005">
<rect width="100" height="100" fill="white"></rect>
</clipPath>
</defs>
</svg><style>@media (prefers-color-scheme: light) { :root { filter: none; } }
@media (prefers-color-scheme: dark) { :root { filter: none; } }
</style></svg>