<svg width="53" height="24" viewBox="0 0 53 24" fill="none" xmlns="http://www.w3.org/2000/svg">
<g clip-path="url(#clip0_844_63)">
<mask id="mask0_844_63" style="mask-type:luminance" maskUnits="userSpaceOnUse" x="2" y="5" width="47" height="13">
<path d="M48.5954 5H2.83336V18H48.5954V5Z" fill="white"/>
</mask>
<g mask="url(#mask0_844_63)">
<path d="M10.7644 17.9235C12.4299 17.9235 13.7782 16.6235 13.7782 15.0176C13.7782 13.4118 12.4299 12.1118 10.7644 12.1118C9.09884 12.1118 7.75056 13.4118 7.75056 15.0176C7.82987 16.6235 9.09884 17.9235 10.7644 17.9235Z" fill="#F14944"/>
<path d="M22.5023 5.07652V16.1647C20.123 16.0883 17.7437 16.0883 15.3644 16.0118H14.6506C14.492 16.0118 14.4127 15.9353 14.4127 15.7824C14.492 15.553 14.492 15.2471 14.492 15.0941C14.492 13.1059 12.9058 11.5 10.8437 11.4236C9.09888 11.4236 7.51268 12.6471 7.11613 14.3294C6.9575 14.8647 6.9575 15.3236 7.03681 15.8589C6.9575 15.8589 6.79888 15.8589 6.48164 15.7824C5.60923 15.6294 4.57819 15.6294 3.78509 15.2471C2.83337 14.8647 2.83337 14.1 2.83337 13.1824C2.83337 12.953 2.67474 12.4942 2.91268 12.3412C3.38854 12.0353 3.54716 11.8824 3.70578 11.4236C3.8644 11.1177 3.94371 10.8883 3.94371 10.7353C3.94371 10.5059 3.8644 10.353 3.8644 10.1236C3.70578 9.66475 3.94371 9.43534 4.02302 8.97651C4.02302 8.82357 3.8644 8.59416 3.94371 8.44122C4.10233 8.21181 4.34026 8.36475 4.57819 8.36475C6.40233 8.36475 8.06785 7.4471 9.65406 6.83534C11.161 6.22357 12.6678 5.61181 14.2541 5.45887C16.1575 5.22946 18.061 5.07652 19.9644 5.07652C20.8368 5.00005 21.7092 5.00005 22.5023 5.07652Z" fill="#F14944"/>
<path d="M41.6954 18C43.361 18 44.7091 16.7 44.7091 15.0941C44.7091 13.4882 43.361 12.1118 41.6954 12.1118C40.0299 12.1118 38.6816 13.4118 38.6816 15.0176C38.6816 16.6235 40.0299 18 41.6954 18Z" fill="#F14944"/>
<path d="M48.5954 15.4765C48.5954 15.8588 48.1195 15.8588 47.7229 15.9353C47.485 16.0118 47.2471 16.0882 46.9298 16.0882C46.454 16.1647 45.8988 16.2412 45.3436 16.2412C45.185 16.2412 45.1057 16.1647 45.1057 16.0118C45.185 15.6294 45.2644 15.3235 45.2644 14.9412C45.2644 12.9529 43.5989 11.3471 41.6161 11.2706C39.792 11.2706 38.1264 12.5706 37.8091 14.3294C37.7298 14.7118 37.8092 15.7059 37.8885 15.9353C37.8885 16.1647 37.8091 16.2412 37.5712 16.2412H36.9368C35.1127 16.2412 33.3678 16.1647 31.6229 16.1647C30.4333 16.1647 29.1644 16.0882 27.9747 16.0882V5C28.7679 5.07647 29.561 5.15294 30.3541 5.30588C32.1782 5.61176 33.6851 6.52941 35.2713 7.37059C35.9851 7.75294 36.7782 8.21176 37.492 8.67059C38.1265 9.05294 38.2057 9.05294 38.7609 8.97647C39.2367 8.97647 39.6333 9.05294 40.1885 9.05294C41.3781 9.20588 42.4885 9.35882 43.5989 9.66471C45.0265 9.97059 46.2954 10.3529 47.485 11.1176C48.3574 11.6529 48.516 12.3412 48.6747 13.2588C48.754 13.6412 48.754 14.0235 48.6747 14.4824C48.6747 14.7118 48.5954 14.9412 48.5954 15.0941C48.5161 15.1706 48.5954 15.4 48.5954 15.4765Z" fill="#F14944"/>
<path d="M21.0747 5H28.0551L28.6885 16.0882L22.5023 16.1647L21.0747 5Z" fill="#F14944"/>
</g>
</g>
<defs>
<clipPath id="clip0_844_63">
<rect width="46" height="13" fill="white" transform="translate(2.83336 5)"/>
</clipPath>
</defs>
</svg>
