<svg width="53" height="24" viewBox="0 0 53 24" fill="none" xmlns="http://www.w3.org/2000/svg">
<g clip-path="url(#clip0_844_336)">
<mask id="mask0_844_336" style="mask-type:luminance" maskUnits="userSpaceOnUse" x="0" y="2" width="52" height="20">
<path d="M51.4804 2H0.5V22H51.4804V2Z" fill="white"/>
</mask>
<g mask="url(#mask0_844_336)">
<path d="M11.5801 22C9.22779 22 7.30669 20.1235 7.26749 17.8342C7.26749 15.5448 9.2278 13.6683 11.6193 13.6683C13.9718 13.6683 15.932 15.5448 15.8928 17.8342C15.8928 20.161 13.9718 22 11.5801 22Z" fill="#F14944"/>
<path d="M47.12 17.8342C47.12 20.161 45.2377 22 42.8455 22C40.4534 22 38.4926 20.161 38.4926 17.8716C38.4926 15.5448 40.3749 13.7058 42.8064 13.6683C45.1592 13.6683 47.12 15.5448 47.12 17.8342Z" fill="#F14944"/>
<path d="M51.4007 14.766C51.2831 14.1604 50.8518 13.7818 50.5773 13.2897C49.95 12.3434 49.5188 11.7756 48.8914 10.8293C48.7738 10.64 48.3426 10.1479 47.5192 10.0344C44.1475 9.65582 41.3638 9.23943 38.0314 8.78519C37.3257 8.67163 36.62 8.63378 36.0711 8.02813C34.8949 6.85467 33.6011 5.75694 32.4248 4.58348C31.8368 4.01568 31.1703 3.63715 30.3862 3.41004C27.0144 2.53941 23.6036 2.08517 20.1142 2.04732C15.5271 1.97161 10.9007 2.00946 6.27445 2.00946C6.03921 2.00946 5.84318 2.04732 5.68636 2.12302C5.45112 2.23658 5.41191 2.57726 5.64714 2.72867C5.68636 2.76653 5.76477 2.80438 5.80397 2.80438C6.00001 2.91794 6.03921 2.99364 5.9608 3.22076C5.3335 4.62134 5.05905 6.05975 5.01985 7.57389C5.01985 7.76315 5.01985 7.99027 4.70621 8.02813C4.78462 7.38462 4.82382 6.77897 4.90223 6.17332C5.01986 5.11343 4.27495 4.2428 3.09876 4.12925C2.04019 4.01568 1.13845 4.77275 1.02083 5.79478C0.824802 7.46033 0.667978 9.16373 0.511154 10.8293C0.393537 12.0027 1.21686 12.8734 2.47146 12.8734C2.82432 12.8734 3.17716 12.7219 3.53002 12.6462C3.41241 13.4412 3.41241 14.1982 3.53002 14.9553C3.72605 16.1665 4.19653 17.2265 5.60794 17.7185C5.60794 17.7185 5.60794 17.7185 5.64714 17.7185C5.84318 17.7564 6.03921 17.605 6.07842 17.4157C6.31365 14.766 8.70522 12.6462 11.5281 12.6462C14.5469 12.6841 16.9777 15.031 16.9777 17.87C16.9777 17.9456 16.9777 18.0593 16.9777 18.1349C16.9777 18.3242 17.1345 18.5135 17.3306 18.5135C17.605 18.5514 17.801 18.5514 17.8402 18.5514C19.2909 18.5892 20.7023 18.6649 22.1529 18.7027C25.2502 18.7785 28.3474 18.8542 31.4447 18.9298C33.1306 18.9677 34.8164 18.9677 36.5024 19.0055C36.5416 19.0055 36.9335 19.0055 37.4825 19.0055C37.4041 18.6649 37.3648 18.2864 37.3648 17.9078C37.3648 15.0688 39.8348 12.6841 42.8144 12.6841C45.7941 12.7219 48.225 15.0688 48.225 17.9078C48.225 18.0971 48.225 18.2864 48.1857 18.4377C48.1857 18.627 48.3426 18.7405 48.4994 18.7027C49.0482 18.5892 49.7932 18.3242 50.0676 18.1349C51.2438 17.3022 51.675 16.1665 51.4007 14.766Z" fill="#F14944"/>
</g>
</g>
<defs>
<clipPath id="clip0_844_336">
<rect width="52" height="24" fill="white" transform="translate(0.5)"/>
</clipPath>
</defs>
</svg>
