<svg width="166" height="140" viewBox="0 0 166 140" fill="none" xmlns="http://www.w3.org/2000/svg">
<g clip-path="url(#clip0_3398_216)">
<path d="M28.0473 135.201C13.388 137.709 0 126.417 0 111.545V24C0 10.7452 10.7452 0 24 0H142C155.255 0 166 10.7452 166 24V91.3565C166 103.05 157.573 113.041 146.047 115.013L28.0473 135.201Z" fill="#F14944"/>
<path d="M34.4213 48L26.1597 49.5116L18 74L24.9868 72.6899L26.3636 67.8528L32.0755 66.7946H32.1774L33.1463 66.5931L33.9623 69.9186L34.2173 70.9768L41 69.7171L34.4213 48ZM27.6896 62.8644L30.0865 54.3992L30.2395 54.3489L32.0244 62.0078L27.6896 62.8644Z" fill="white"/>
<path d="M54.5339 44.3402L54.1829 58.4366C54.1329 60.6702 53.1304 61.9608 51.2256 62.3579C50.3233 62.5067 49.5715 62.4075 48.8697 62.0104C48.168 61.6133 47.7669 61.0177 47.6166 60.1739C47.5664 59.8265 47.5163 59.4293 47.5163 58.9827L47.8171 45.5314L41.3509 46.7226L41 60.2235C41 60.8688 41.0501 61.514 41.1504 62.1097C41.5514 64.3433 42.7544 65.9316 44.7093 66.9739C46.6642 68.0163 49.0702 68.2644 51.9774 67.7185C54.5339 67.2221 56.589 66.1797 58.193 64.5914C59.7469 62.9534 60.599 60.9681 60.6491 58.6351L61 43L54.5339 44.3402Z" fill="white"/>
<path d="M103.709 43.8682C103.471 42.4994 103.043 41.2826 102.425 40.218C101.806 39.1534 100.998 38.2915 100.046 37.5818C99.0951 36.872 97.9535 36.4158 96.6693 36.1623C95.385 35.9088 93.9581 35.9595 92.4836 36.2637C90.8664 36.5679 89.4394 37.227 88.1552 38.1394C86.8709 39.052 85.777 40.218 84.9208 41.6375C84.0646 43.0064 83.4939 44.6287 83.2085 46.4538C82.923 48.2788 82.923 50.2053 83.256 52.1825C83.4939 53.5513 83.9219 54.768 84.5878 55.8327C85.2537 56.8973 86.0148 57.8098 86.9661 58.4689C87.9174 59.128 89.0589 59.6349 90.3432 59.8377C91.6274 60.0912 93.0068 60.0404 94.4813 59.7364C96.0985 59.4322 97.5255 58.7731 98.8573 57.8605C100.142 56.8973 101.236 55.782 102.092 54.4131C102.948 53.0443 103.518 51.422 103.851 49.597C104.089 47.8225 104.042 45.896 103.709 43.8682ZM96.9548 51.4727C96.1937 53.2471 95.0996 54.261 93.6727 54.5652C92.6263 54.768 91.675 54.5146 90.9139 53.8048C90.1529 53.095 89.6297 52.0304 89.3443 50.6109C89.1065 49.1913 89.1065 47.8225 89.3443 46.4538C89.5822 45.1356 90.0578 44.0203 90.7237 43.1585C91.3896 42.2965 92.1982 41.7389 93.1495 41.5868C94.1959 41.3841 95.1472 41.6375 95.9083 42.3473C96.6693 43.057 97.1925 44.1217 97.4779 45.5412C97.906 47.7211 97.7157 49.6984 96.9548 51.4727Z" fill="white"/>
<path d="M65.9918 77.686L56.532 79.4283L56.434 83.7842L59.914 83.155C59.865 84.0263 59.5219 84.849 58.8847 85.5266C58.2475 86.2042 57.4633 86.6397 56.532 86.8334C55.2576 87.0753 54.2283 86.8334 53.395 86.1557C52.5618 85.4782 52.0227 84.4619 51.7285 83.0098C51.4344 81.5579 51.4344 80.2027 51.6795 78.9443C51.9246 77.686 52.4147 76.6213 53.15 75.7984C53.8852 74.9757 54.7675 74.4433 55.8458 74.2496C56.8261 74.0561 57.6593 74.1529 58.3946 74.5401C59.1298 74.9273 59.5709 75.508 59.816 76.234L65.8938 75.1209C65.8938 74.9757 65.8447 74.7821 65.8447 74.6369C65.6487 73.7173 65.2566 72.8462 64.6194 72.0718C63.9822 71.2974 63.198 70.6682 62.2667 70.1358C61.3354 69.6034 60.2571 69.2647 58.9827 69.1195C57.7084 68.9259 56.434 68.9742 55.0616 69.2162C53.2971 69.5551 51.7285 70.1842 50.3071 71.1037C48.8857 72.0233 47.7584 73.1365 46.9252 74.4917C46.0919 75.7984 45.5037 77.3472 45.2096 79.0412C44.9155 80.7351 44.9155 82.5258 45.3077 84.365C45.8468 87.1237 47.1212 89.2049 49.2289 90.56C51.3365 91.9152 53.7872 92.3024 56.6791 91.77C59.7669 91.1892 62.0707 89.8825 63.6881 87.8497C65.3055 85.817 66.0898 83.155 65.9918 79.9124V77.686Z" fill="white"/>
<path d="M100.422 61L92.1598 62.5116L84 87L90.9868 85.6899L92.3638 80.8527L98.4327 79.7442L99.1466 79.5931L99.6566 81.7597L99.7076 81.9109L100.218 83.9768L107 82.7171L100.422 61ZM93.7408 75.8644L96.1377 67.3992H96.2907L98.0756 75.0581L93.7408 75.8644Z" fill="white"/>
<path d="M125.875 71.2225C125.577 69.6554 124.933 68.4928 123.843 67.7346C122.803 66.9763 121.217 66.4708 119.137 66.2687L116.61 66.0159C115.719 65.9147 115.025 65.7631 114.629 65.5104C114.233 65.2576 113.935 64.9038 113.886 64.4488C113.786 63.8928 113.935 63.4378 114.431 62.9829C114.877 62.528 115.521 62.2752 116.363 62.073C117.255 61.9213 118.048 61.9719 118.691 62.2247C119.335 62.528 119.731 62.9829 119.88 63.6906L125.726 62.5785C125.33 60.3543 124.19 58.7873 122.357 57.8773C120.524 56.9675 118.196 56.7653 115.372 57.2708C112.697 57.7763 110.617 58.8884 109.18 60.6071C107.743 62.3258 107.198 64.2972 107.595 66.5214C108.14 69.5038 110.369 71.172 114.332 71.6269L116.759 71.8797C117.8 71.9807 118.494 72.183 118.889 72.3852C119.285 72.5873 119.484 72.9412 119.583 73.3456C119.682 73.9016 119.484 74.4071 118.988 74.8621C118.494 75.3171 117.8 75.6204 116.858 75.8225C115.967 75.9742 115.174 75.9237 114.431 75.6709C113.737 75.4181 113.242 74.9632 113.044 74.3566L107 75.5192C107.396 77.6928 108.536 79.2599 110.419 80.1698C112.301 81.0797 114.679 81.2314 117.651 80.6754C120.574 80.1193 122.754 79.0071 124.289 77.2885C125.726 75.5698 126.27 73.5478 125.875 71.2225Z" fill="white"/>
<path d="M146.848 67.2225C146.55 65.6555 145.905 64.4929 144.815 63.7346C143.773 62.9763 142.186 62.4708 140.103 62.2687L137.573 62.0159C136.68 61.9148 135.985 61.7632 135.589 61.5104C135.192 61.2577 134.894 60.9039 134.845 60.4489C134.745 59.8929 134.944 59.4379 135.391 58.9829C135.837 58.528 136.481 58.2247 137.325 58.073C138.218 57.9213 139.011 57.972 139.656 58.2247C140.301 58.528 140.698 58.9829 140.847 59.6906L146.699 58.5785C146.302 56.3544 145.162 54.7873 143.327 53.8774C141.491 52.9675 139.16 52.7653 136.332 53.2708C133.654 53.7763 131.571 54.8884 130.133 56.607C128.694 58.3258 128.149 60.2972 128.545 62.5215C129.091 65.5039 131.323 67.172 135.291 67.627L137.722 67.8797C138.763 67.9808 139.458 68.183 139.854 68.3852C140.251 68.5874 140.45 68.9413 140.549 69.3456C140.648 69.9017 140.45 70.4072 140.003 70.8621C139.507 71.3171 138.812 71.6204 137.871 71.8225C136.977 71.9742 136.183 71.9237 135.44 71.6709C134.745 71.4182 134.249 70.9632 134.051 70.3566L128 71.5192C128.397 73.6929 129.537 75.2599 131.422 76.1699C133.307 77.0797 135.688 77.2314 138.664 76.6754C141.59 76.1194 143.773 75.0072 145.311 73.2885C146.749 71.5699 147.295 69.5478 146.848 67.2225Z" fill="white"/>
<path d="M82 39L81.8488 44.2579L76.9099 45.2004L76.0531 62.4127L67.7374 64V55.7163V55.6171L67.5862 46.8869L66.5783 47.0853L63 47.7301L63.1512 42.4722L67.687 41.6289L77.1619 39.8928L82 39Z" fill="white"/>
<path d="M83.8496 86.856L74.9217 88.5294H74.8715L68.1004 90L68 66.4199L76.0251 65L75.2226 82.9513L84 81.2779L83.8496 86.856Z" fill="white"/>
<path d="M51.8721 99C47.6654 99 43.6565 97.1792 40.786 93.8409C37.272 89.7441 36.1337 84.1804 37.8164 78.9708L38.2342 77.7114C38.4899 76.9405 37.8266 76.1777 37.0349 76.3322L11.2549 81.361C10.4685 81.5144 9.80667 80.7621 10.0518 79.9934L19.7022 49.7362C20.5436 47.1061 22.7213 45.1335 25.3938 44.6276L93.7425 31.2748C98.8897 30.2633 104.037 32.0841 107.501 36.0798C110.966 40.0756 112.055 45.5381 110.422 50.6465L110.235 51.2328C109.987 52.0086 110.663 52.7648 111.454 52.5972L135.711 47.4601C141.651 46.1956 147.59 48.2187 151.648 52.8214C155.706 57.4241 157.043 63.6959 155.163 69.6137C153.331 75.5314 148.481 79.9318 142.542 81.0951L54.7923 98.6965C53.8024 98.8988 52.8126 99 51.8721 99ZM42.1462 71.7268C42.9348 71.573 43.5973 72.3297 43.3477 73.0993L41.0828 80.0835C39.7961 84.0792 40.6374 88.3279 43.3595 91.4637C46.0816 94.5996 50.0905 96.0159 54.1488 95.2066L141.899 77.6051C146.6 76.6442 150.46 73.1541 151.896 68.5009C153.38 63.797 152.342 58.8403 149.075 55.1481C145.858 51.5063 141.106 49.8878 136.405 50.8995L106.353 57.2519C105.563 57.419 104.887 56.6639 105.134 55.8884L107.155 49.5338C108.393 45.6393 107.551 41.4917 104.928 38.4064C102.255 35.3212 98.3453 33.9555 94.386 34.7142L26.0373 48.067C24.6019 48.3705 23.4141 49.382 22.9687 50.8488L15.1488 75.3911C14.9039 76.1597 15.5657 76.9118 16.352 76.7584L42.1462 71.7268Z" fill="white"/>
</g>
<defs>
<clipPath id="clip0_3398_216">
<rect width="166" height="140" fill="white"/>
</clipPath>
</defs>
</svg>
