<svg width="1568" height="159" viewBox="0 0 1568 159" fill="none" xmlns="http://www.w3.org/2000/svg">
<path d="M182.467 151.751V156.194H151.067L134.254 121.121H48.2128L31.4001 156.194H0V151.751L74.1736 2.80589H108.293L182.467 151.751ZM121.397 94.9323L91.2335 32.2676L61.0696 94.9323H121.397Z" fill="url(#paint0_linear_132_69)"/>
<path d="M259.723 159C243.9 159 229.972 156.116 217.939 150.349C206.071 144.425 196.841 136.163 190.247 125.563C183.654 114.963 180.358 102.649 180.358 88.6191V2.80589H211.263V89.0868C211.263 102.493 215.466 113.015 223.873 120.653C232.444 128.135 244.394 131.876 259.723 131.876C275.053 131.876 287.003 128.135 295.574 120.653C304.145 113.015 308.431 102.493 308.431 89.0868V2.80589H339.336V88.6191C339.336 102.649 336.04 114.963 329.446 125.563C322.853 136.163 313.54 144.425 301.508 150.349C289.475 156.116 275.547 159 259.723 159Z" fill="url(#paint1_linear_132_69)"/>
<path d="M346.251 28.9941V2.80589H510.669V28.9941H443.913V156.194H413.008V28.9941H346.251Z" fill="url(#paint2_linear_132_69)"/>
<path d="M600.447 159C581.326 159 564.596 155.804 550.256 149.413C536.08 143.022 525.119 133.981 517.372 122.29C509.625 110.443 505.752 96.6471 505.752 80.9029V78.3309C505.752 62.5868 509.625 48.7912 517.372 36.9441C525.119 25.0971 536.163 15.9779 550.503 9.58677C564.843 3.19559 581.491 0 600.447 0C619.402 0 635.967 3.19559 650.143 9.58677C664.483 15.9779 675.527 25.0971 683.274 36.9441C691.021 48.7912 694.894 62.5868 694.894 78.3309V80.9029C694.894 96.6471 691.021 110.443 683.274 122.29C675.527 133.981 664.565 143.022 650.39 149.413C636.215 155.804 619.567 159 600.447 159ZM600.447 131.876C620.556 131.876 636.05 127.512 646.929 118.782C657.972 109.897 663.494 97.4265 663.494 81.3706V78.0971C663.494 62.0412 657.972 49.5706 646.929 40.6853C636.05 31.6441 620.556 27.1235 600.447 27.1235C580.337 27.1235 564.761 31.6441 553.717 40.6853C542.674 49.5706 537.152 62.0412 537.152 78.0971V81.3706C537.152 97.4265 542.674 109.897 553.717 118.782C564.761 127.512 580.337 131.876 600.447 131.876Z" fill="url(#paint3_linear_132_69)"/>
<path d="M896.882 73.6544V156.194H868.943L867.707 140.528C851.718 152.843 830.785 159 804.907 159C785.127 159 767.902 155.882 753.232 149.647C738.727 143.256 727.519 134.215 719.607 122.524C711.695 110.832 707.739 97.0368 707.739 81.1368V78.0971C707.739 62.5088 711.695 48.8691 719.607 37.1779C727.684 25.3309 739.057 16.2118 753.727 9.82059C768.562 3.27353 785.704 0 805.154 0C823.285 0 839.274 2.33824 853.119 7.01471C866.965 11.5353 877.679 18.0824 885.261 26.6559C892.844 35.0735 896.635 44.8162 896.635 55.8838V57.0529H865.235V55.8838C865.235 50.7397 862.515 45.9853 857.075 41.6206C851.801 37.1 844.548 33.5926 835.318 31.0985C826.252 28.4485 816.28 27.1235 805.401 27.1235C784.468 27.1235 768.15 31.5662 756.447 40.4515C744.909 49.1809 739.139 61.5735 739.139 77.6294V81.6044C739.139 97.9721 744.744 110.443 755.952 119.016C767.325 127.59 783.808 131.876 805.401 131.876C818.423 131.876 830.043 130.084 840.263 126.499C850.482 122.913 859.053 118.003 865.976 111.768V99.8426H783.149V73.6544H896.882Z" fill="url(#paint4_linear_132_69)"/>
<path d="M948.286 2.80589V130.006H1063.01V156.194H917.38V2.80589H948.286Z" fill="url(#paint5_linear_132_69)"/>
<path d="M1237.69 151.751V156.194H1206.29L1189.48 121.121H1103.44L1086.63 156.194H1055.23V151.751L1129.4 2.80589H1163.52L1237.69 151.751ZM1176.62 94.9323L1146.46 32.2676L1116.29 94.9323H1176.62Z" fill="url(#paint6_linear_132_69)"/>
<path d="M1313.46 159C1286.93 159 1266.82 154.557 1253.14 145.672C1239.46 136.787 1232.62 123.771 1232.62 106.624V104.519H1263.52V106.624C1263.52 124.082 1280.66 132.812 1314.95 132.812C1329.78 132.812 1341.07 131.175 1348.82 127.901C1356.73 124.628 1360.69 119.874 1360.69 113.638V112.001C1360.69 106.546 1358.38 102.493 1353.77 99.8426C1349.15 97.1926 1340.74 95.0882 1328.55 93.5294L1289.48 88.3853C1253.71 83.7088 1235.83 69.9912 1235.83 47.2324V44.8941C1235.83 30.8647 1242.34 19.875 1255.36 11.925C1268.55 3.975 1287.09 0 1310.99 0C1336.21 0 1355.41 4.28676 1368.6 12.8603C1381.95 21.4338 1388.63 33.9044 1388.63 50.2721V52.3765H1357.72V50.2721C1357.72 34.2162 1342.15 26.1882 1310.99 26.1882C1296.82 26.1882 1285.94 27.7471 1278.36 30.8647C1270.94 33.9824 1267.23 38.425 1267.23 44.1926V46.0632C1267.23 50.7397 1269.37 54.325 1273.66 56.8191C1278.11 59.1574 1285.77 61.0279 1296.65 62.4309L1335.96 67.575C1355.25 70.0691 1369.42 74.8235 1378.49 81.8382C1387.56 88.6971 1392.09 98.2838 1392.09 110.599V112.937C1392.09 127.434 1385.25 138.735 1371.57 146.841C1357.89 154.947 1338.52 159 1313.46 159Z" fill="url(#paint7_linear_132_69)"/>
<path d="M1489.38 159C1462.84 159 1442.73 154.557 1429.05 145.672C1415.37 136.787 1408.53 123.771 1408.53 106.624V104.519H1439.43V106.624C1439.43 124.082 1456.57 132.812 1490.86 132.812C1505.69 132.812 1516.99 131.175 1524.73 127.901C1532.64 124.628 1536.6 119.874 1536.6 113.638V112.001C1536.6 106.546 1534.29 102.493 1529.68 99.8426C1525.06 97.1926 1516.66 95.0882 1504.46 93.5294L1465.39 88.3853C1429.63 83.7088 1411.74 69.9912 1411.74 47.2324V44.8941C1411.74 30.8647 1418.25 19.875 1431.27 11.925C1444.46 3.975 1463 0 1486.9 0C1512.12 0 1531.33 4.28676 1544.51 12.8603C1557.86 21.4338 1564.54 33.9044 1564.54 50.2721V52.3765H1533.63V50.2721C1533.63 34.2162 1518.06 26.1882 1486.9 26.1882C1472.73 26.1882 1461.85 27.7471 1454.27 30.8647C1446.85 33.9824 1443.14 38.425 1443.14 44.1926V46.0632C1443.14 50.7397 1445.28 54.325 1449.57 56.8191C1454.02 59.1574 1461.68 61.0279 1472.56 62.4309L1511.88 67.575C1531.16 70.0691 1545.34 74.8235 1554.4 81.8382C1563.47 88.6971 1568 98.2838 1568 110.599V112.937C1568 127.434 1561.16 138.735 1547.48 146.841C1533.8 154.947 1514.43 159 1489.38 159Z" fill="url(#paint8_linear_132_69)"/>
<defs>
<linearGradient id="paint0_linear_132_69" x1="784" y1="-46.0552" x2="784" y2="159" gradientUnits="userSpaceOnUse">
<stop stop-color="white"/>
<stop offset="0.572115" stop-color="white" stop-opacity="0.24"/>
<stop offset="1" stop-color="white" stop-opacity="0"/>
</linearGradient>
<linearGradient id="paint1_linear_132_69" x1="784" y1="-46.0552" x2="784" y2="159" gradientUnits="userSpaceOnUse">
<stop stop-color="white"/>
<stop offset="0.572115" stop-color="white" stop-opacity="0.24"/>
<stop offset="1" stop-color="white" stop-opacity="0"/>
</linearGradient>
<linearGradient id="paint2_linear_132_69" x1="784" y1="-46.0552" x2="784" y2="159" gradientUnits="userSpaceOnUse">
<stop stop-color="white"/>
<stop offset="0.572115" stop-color="white" stop-opacity="0.24"/>
<stop offset="1" stop-color="white" stop-opacity="0"/>
</linearGradient>
<linearGradient id="paint3_linear_132_69" x1="784" y1="-46.0552" x2="784" y2="159" gradientUnits="userSpaceOnUse">
<stop stop-color="white"/>
<stop offset="0.572115" stop-color="white" stop-opacity="0.24"/>
<stop offset="1" stop-color="white" stop-opacity="0"/>
</linearGradient>
<linearGradient id="paint4_linear_132_69" x1="784" y1="-46.0552" x2="784" y2="159" gradientUnits="userSpaceOnUse">
<stop stop-color="white"/>
<stop offset="0.572115" stop-color="white" stop-opacity="0.24"/>
<stop offset="1" stop-color="white" stop-opacity="0"/>
</linearGradient>
<linearGradient id="paint5_linear_132_69" x1="784" y1="-46.0552" x2="784" y2="159" gradientUnits="userSpaceOnUse">
<stop stop-color="white"/>
<stop offset="0.572115" stop-color="white" stop-opacity="0.24"/>
<stop offset="1" stop-color="white" stop-opacity="0"/>
</linearGradient>
<linearGradient id="paint6_linear_132_69" x1="784" y1="-46.0552" x2="784" y2="159" gradientUnits="userSpaceOnUse">
<stop stop-color="white"/>
<stop offset="0.572115" stop-color="white" stop-opacity="0.24"/>
<stop offset="1" stop-color="white" stop-opacity="0"/>
</linearGradient>
<linearGradient id="paint7_linear_132_69" x1="784" y1="-46.0552" x2="784" y2="159" gradientUnits="userSpaceOnUse">
<stop stop-color="white"/>
<stop offset="0.572115" stop-color="white" stop-opacity="0.24"/>
<stop offset="1" stop-color="white" stop-opacity="0"/>
</linearGradient>
<linearGradient id="paint8_linear_132_69" x1="784" y1="-46.0552" x2="784" y2="159" gradientUnits="userSpaceOnUse">
<stop stop-color="white"/>
<stop offset="0.572115" stop-color="white" stop-opacity="0.24"/>
<stop offset="1" stop-color="white" stop-opacity="0"/>
</linearGradient>
</defs>
</svg>
